<svg width="110" height="110" viewBox="0 0 110 110" fill="none" xmlns="http://www.w3.org/2000/svg">
<circle opacity="0.05" cx="55" cy="55" r="55" fill="black"/>
<rect x="57.9375" y="58.8945" width="9" height="9" rx="1" stroke="#B01736" stroke-width="2"/>
<path d="M39.1484 52.2354V66.1177V77.0001C39.1484 77.5524 39.5962 78.0001 40.1484 78.0001H69.9329C70.4852 78.0001 70.9329 77.5524 70.9329 77.0001V52.2354M53.1484 78.0001V59.8952C53.1484 59.3429 52.7007 58.8952 52.1484 58.8952H45.1484C44.5962 58.8952 44.1484 59.3429 44.1484 59.8952V78.0001" stroke="#B01736" stroke-width="2"/>
<path d="M33.4476 52H76.5524C77.915 52 78.5201 50.3298 77.4597 49.4956L55.6194 32.3124C55.0844 31.8915 54.3193 31.8964 53.79 32.3241L32.5256 49.5073C31.4838 50.3491 32.0945 52 33.4476 52Z" stroke="#B01736" stroke-width="2"/>
</svg>
